<?xml version="1.0" encoding="utf-8" standalone="no"?>
<!DOCTYPE svg PUBLIC "-//W3C//DTD SVG 1.1//EN"
  "http://www.w3.org/Graphics/SVG/1.1/DTD/svg11.dtd">
<svg xmlns:xlink="http://www.w3.org/1999/xlink" width="432pt" height="288pt" viewBox="0 0 432 288" xmlns="http://www.w3.org/2000/svg" version="1.1">
 <metadata>
  <rdf:RDF xmlns:dc="http://purl.org/dc/elements/1.1/" xmlns:cc="http://creativecommons.org/ns#" xmlns:rdf="http://www.w3.org/1999/02/22-rdf-syntax-ns#">
   <cc:Work>
    <dc:type rdf:resource="http://purl.org/dc/dcmitype/StillImage"/>
    <dc:date>2025-01-14T02:02:01.585065</dc:date>
    <dc:format>image/svg+xml</dc:format>
    <dc:creator>
     <cc:Agent>
      <dc:title>Matplotlib v3.7.2, https://matplotlib.org/</dc:title>
     </cc:Agent>
    </dc:creator>
   </cc:Work>
  </rdf:RDF>
 </metadata>
 <defs>
  <style type="text/css">*{stroke-linejoin: round; stroke-linecap: butt}</style>
 </defs>
 <g id="figure_1">
  <g id="patch_1">
   <path d="M 0 288 
L 432 288 
L 432 0 
L 0 0 
z
" style="fill: #ffffff"/>
  </g>
  <g id="axes_1">
   <g id="patch_2">
    <path d="M 54 256.32 
L 388.8 256.32 
L 388.8 34.56 
L 54 34.56 
z
" style="fill: #ffffff"/>
   </g>
   <g id="matplotlib.axis_1">
    <g id="xtick_1">
     <g id="line2d_1">
      <defs>
       <path id="m7f3f06035e" d="M 0 0 
L 0 3.5 
" style="stroke: #000000; stroke-width: 0.8"/>
      </defs>
      <g>
       <use xlink:href="#m7f3f06035e" x="69.218182" y="256.32" style="stroke: #000000; stroke-width: 0.8"/>
      </g>
     </g>
     <g id="text_1">
      <!-- 0 -->
      <g transform="translate(66.036932 270.918437) scale(0.1 -0.1)">
       <defs>
        <path id="DejaVuSans-30" d="M 2034 4250 
Q 1547 4250 1301 3770 
Q 1056 3291 1056 2328 
Q 1056 1369 1301 889 
Q 1547 409 2034 409 
Q 2525 409 2770 889 
Q 3016 1369 3016 2328 
Q 3016 3291 2770 3770 
Q 2525 4250 2034 4250 
z
M 2034 4750 
Q 2819 4750 3233 4129 
Q 3647 3509 3647 2328 
Q 3647 1150 3233 529 
Q 2819 -91 2034 -91 
Q 1250 -91 836 529 
Q 422 1150 422 2328 
Q 422 3509 836 4129 
Q 1250 4750 2034 4750 
z
" transform="scale(0.015625)"/>
       </defs>
       <use xlink:href="#DejaVuSans-30"/>
      </g>
     </g>
    </g>
    <g id="xtick_2">
     <g id="line2d_2">
      <g>
       <use xlink:href="#m7f3f06035e" x="130.705785" y="256.32" style="stroke: #000000; stroke-width: 0.8"/>
      </g>
     </g>
     <g id="text_2">
      <!-- 20 -->
      <g transform="translate(124.343285 270.918437) scale(0.1 -0.1)">
       <defs>
        <path id="DejaVuSans-32" d="M 1228 531 
L 3431 531 
L 3431 0 
L 469 0 
L 469 531 
Q 828 903 1448 1529 
Q 2069 2156 2228 2338 
Q 2531 2678 2651 2914 
Q 2772 3150 2772 3378 
Q 2772 3750 2511 3984 
Q 2250 4219 1831 4219 
Q 1534 4219 1204 4116 
Q 875 4013 500 3803 
L 500 4441 
Q 881 4594 1212 4672 
Q 1544 4750 1819 4750 
Q 2544 4750 2975 4387 
Q 3406 4025 3406 3419 
Q 3406 3131 3298 2873 
Q 3191 2616 2906 2266 
Q 2828 2175 2409 1742 
Q 1991 1309 1228 531 
z
" transform="scale(0.015625)"/>
       </defs>
       <use xlink:href="#DejaVuSans-32"/>
       <use xlink:href="#DejaVuSans-30" x="63.623047"/>
      </g>
     </g>
    </g>
    <g id="xtick_3">
     <g id="line2d_3">
      <g>
       <use xlink:href="#m7f3f06035e" x="192.193388" y="256.32" style="stroke: #000000; stroke-width: 0.8"/>
      </g>
     </g>
     <g id="text_3">
      <!-- 40 -->
      <g transform="translate(185.830888 270.918437) scale(0.1 -0.1)">
       <defs>
        <path id="DejaVuSans-34" d="M 2419 4116 
L 825 1625 
L 2419 1625 
L 2419 4116 
z
M 2253 4666 
L 3047 4666 
L 3047 1625 
L 3713 1625 
L 3713 1100 
L 3047 1100 
L 3047 0 
L 2419 0 
L 2419 1100 
L 313 1100 
L 313 1709 
L 2253 4666 
z
" transform="scale(0.015625)"/>
       </defs>
       <use xlink:href="#DejaVuSans-34"/>
       <use xlink:href="#DejaVuSans-30" x="63.623047"/>
      </g>
     </g>
    </g>
    <g id="xtick_4">
     <g id="line2d_4">
      <g>
       <use xlink:href="#m7f3f06035e" x="253.680992" y="256.32" style="stroke: #000000; stroke-width: 0.8"/>
      </g>
     </g>
     <g id="text_4">
      <!-- 60 -->
      <g transform="translate(247.318492 270.918437) scale(0.1 -0.1)">
       <defs>
        <path id="DejaVuSans-36" d="M 2113 2584 
Q 1688 2584 1439 2293 
Q 1191 2003 1191 1497 
Q 1191 994 1439 701 
Q 1688 409 2113 409 
Q 2538 409 2786 701 
Q 3034 994 3034 1497 
Q 3034 2003 2786 2293 
Q 2538 2584 2113 2584 
z
M 3366 4563 
L 3366 3988 
Q 3128 4100 2886 4159 
Q 2644 4219 2406 4219 
Q 1781 4219 1451 3797 
Q 1122 3375 1075 2522 
Q 1259 2794 1537 2939 
Q 1816 3084 2150 3084 
Q 2853 3084 3261 2657 
Q 3669 2231 3669 1497 
Q 3669 778 3244 343 
Q 2819 -91 2113 -91 
Q 1303 -91 875 529 
Q 447 1150 447 2328 
Q 447 3434 972 4092 
Q 1497 4750 2381 4750 
Q 2619 4750 2861 4703 
Q 3103 4656 3366 4563 
z
" transform="scale(0.015625)"/>
       </defs>
       <use xlink:href="#DejaVuSans-36"/>
       <use xlink:href="#DejaVuSans-30" x="63.623047"/>
      </g>
     </g>
    </g>
    <g id="xtick_5">
     <g id="line2d_5">
      <g>
       <use xlink:href="#m7f3f06035e" x="315.168595" y="256.32" style="stroke: #000000; stroke-width: 0.8"/>
      </g>
     </g>
     <g id="text_5">
      <!-- 80 -->
      <g transform="translate(308.806095 270.918437) scale(0.1 -0.1)">
       <defs>
        <path id="DejaVuSans-38" d="M 2034 2216 
Q 1584 2216 1326 1975 
Q 1069 1734 1069 1313 
Q 1069 891 1326 650 
Q 1584 409 2034 409 
Q 2484 409 2743 651 
Q 3003 894 3003 1313 
Q 3003 1734 2745 1975 
Q 2488 2216 2034 2216 
z
M 1403 2484 
Q 997 2584 770 2862 
Q 544 3141 544 3541 
Q 544 4100 942 4425 
Q 1341 4750 2034 4750 
Q 2731 4750 3128 4425 
Q 3525 4100 3525 3541 
Q 3525 3141 3298 2862 
Q 3072 2584 2669 2484 
Q 3125 2378 3379 2068 
Q 3634 1759 3634 1313 
Q 3634 634 3220 271 
Q 2806 -91 2034 -91 
Q 1263 -91 848 271 
Q 434 634 434 1313 
Q 434 1759 690 2068 
Q 947 2378 1403 2484 
z
M 1172 3481 
Q 1172 3119 1398 2916 
Q 1625 2713 2034 2713 
Q 2441 2713 2670 2916 
Q 2900 3119 2900 3481 
Q 2900 3844 2670 4047 
Q 2441 4250 2034 4250 
Q 1625 4250 1398 4047 
Q 1172 3844 1172 3481 
z
" transform="scale(0.015625)"/>
       </defs>
       <use xlink:href="#DejaVuSans-38"/>
       <use xlink:href="#DejaVuSans-30" x="63.623047"/>
      </g>
     </g>
    </g>
    <g id="xtick_6">
     <g id="line2d_6">
      <g>
       <use xlink:href="#m7f3f06035e" x="376.656198" y="256.32" style="stroke: #000000; stroke-width: 0.8"/>
      </g>
     </g>
     <g id="text_6">
      <!-- 100 -->
      <g transform="translate(367.112448 270.918437) scale(0.1 -0.1)">
       <defs>
        <path id="DejaVuSans-31" d="M 794 531 
L 1825 531 
L 1825 4091 
L 703 3866 
L 703 4441 
L 1819 4666 
L 2450 4666 
L 2450 531 
L 3481 531 
L 3481 0 
L 794 0 
L 794 531 
z
" transform="scale(0.015625)"/>
       </defs>
       <use xlink:href="#DejaVuSans-31"/>
       <use xlink:href="#DejaVuSans-30" x="63.623047"/>
       <use xlink:href="#DejaVuSans-30" x="127.246094"/>
      </g>
     </g>
    </g>
    <g id="text_7">
     <!-- Epoch -->
     <g transform="translate(203.026875 286.11625) scale(0.12 -0.12)">
      <defs>
       <path id="DejaVuSans-45" d="M 628 4666 
L 3578 4666 
L 3578 4134 
L 1259 4134 
L 1259 2753 
L 3481 2753 
L 3481 2222 
L 1259 2222 
L 1259 531 
L 3634 531 
L 3634 0 
L 628 0 
L 628 4666 
z
" transform="scale(0.015625)"/>
       <path id="DejaVuSans-70" d="M 1159 525 
L 1159 -1331 
L 581 -1331 
L 581 3500 
L 1159 3500 
L 1159 2969 
Q 1341 3281 1617 3432 
Q 1894 3584 2278 3584 
Q 2916 3584 3314 3078 
Q 3713 2572 3713 1747 
Q 3713 922 3314 415 
Q 2916 -91 2278 -91 
Q 1894 -91 1617 61 
Q 1341 213 1159 525 
z
M 3116 1747 
Q 3116 2381 2855 2742 
Q 2594 3103 2138 3103 
Q 1681 3103 1420 2742 
Q 1159 2381 1159 1747 
Q 1159 1113 1420 752 
Q 1681 391 2138 391 
Q 2594 391 2855 752 
Q 3116 1113 3116 1747 
z
" transform="scale(0.015625)"/>
       <path id="DejaVuSans-6f" d="M 1959 3097 
Q 1497 3097 1228 2736 
Q 959 2375 959 1747 
Q 959 1119 1226 758 
Q 1494 397 1959 397 
Q 2419 397 2687 759 
Q 2956 1122 2956 1747 
Q 2956 2369 2687 2733 
Q 2419 3097 1959 3097 
z
M 1959 3584 
Q 2709 3584 3137 3096 
Q 3566 2609 3566 1747 
Q 3566 888 3137 398 
Q 2709 -91 1959 -91 
Q 1206 -91 779 398 
Q 353 888 353 1747 
Q 353 2609 779 3096 
Q 1206 3584 1959 3584 
z
" transform="scale(0.015625)"/>
       <path id="DejaVuSans-63" d="M 3122 3366 
L 3122 2828 
Q 2878 2963 2633 3030 
Q 2388 3097 2138 3097 
Q 1578 3097 1268 2742 
Q 959 2388 959 1747 
Q 959 1106 1268 751 
Q 1578 397 2138 397 
Q 2388 397 2633 464 
Q 2878 531 3122 666 
L 3122 134 
Q 2881 22 2623 -34 
Q 2366 -91 2075 -91 
Q 1284 -91 818 406 
Q 353 903 353 1747 
Q 353 2603 823 3093 
Q 1294 3584 2113 3584 
Q 2378 3584 2631 3529 
Q 2884 3475 3122 3366 
z
" transform="scale(0.015625)"/>
       <path id="DejaVuSans-68" d="M 3513 2113 
L 3513 0 
L 2938 0 
L 2938 2094 
Q 2938 2591 2744 2837 
Q 2550 3084 2163 3084 
Q 1697 3084 1428 2787 
Q 1159 2491 1159 1978 
L 1159 0 
L 581 0 
L 581 4863 
L 1159 4863 
L 1159 2956 
Q 1366 3272 1645 3428 
Q 1925 3584 2291 3584 
Q 2894 3584 3203 3211 
Q 3513 2838 3513 2113 
z
" transform="scale(0.015625)"/>
      </defs>
      <use xlink:href="#DejaVuSans-45"/>
      <use xlink:href="#DejaVuSans-70" x="63.183594"/>
      <use xlink:href="#DejaVuSans-6f" x="126.660156"/>
      <use xlink:href="#DejaVuSans-63" x="187.841797"/>
      <use xlink:href="#DejaVuSans-68" x="242.822266"/>
     </g>
    </g>
   </g>
   <g id="matplotlib.axis_2">
    <g id="ytick_1">
     <g id="line2d_7">
      <defs>
       <path id="mb4c51609fb" d="M 0 0 
L -3.5 0 
" style="stroke: #000000; stroke-width: 0.8"/>
      </defs>
      <g>
       <use xlink:href="#mb4c51609fb" x="54" y="249.814468" style="stroke: #000000; stroke-width: 0.8"/>
      </g>
     </g>
     <g id="text_8">
      <!-- 0.0 -->
      <g transform="translate(31.096875 253.613687) scale(0.1 -0.1)">
       <defs>
        <path id="DejaVuSans-2e" d="M 684 794 
L 1344 794 
L 1344 0 
L 684 0 
L 684 794 
z
" transform="scale(0.015625)"/>
       </defs>
       <use xlink:href="#DejaVuSans-30"/>
       <use xlink:href="#DejaVuSans-2e" x="63.623047"/>
       <use xlink:href="#DejaVuSans-30" x="95.410156"/>
      </g>
     </g>
    </g>
    <g id="ytick_2">
     <g id="line2d_8">
      <g>
       <use xlink:href="#mb4c51609fb" x="54" y="222.31856" style="stroke: #000000; stroke-width: 0.8"/>
      </g>
     </g>
     <g id="text_9">
      <!-- 0.1 -->
      <g transform="translate(31.096875 226.117778) scale(0.1 -0.1)">
       <use xlink:href="#DejaVuSans-30"/>
       <use xlink:href="#DejaVuSans-2e" x="63.623047"/>
       <use xlink:href="#DejaVuSans-31" x="95.410156"/>
      </g>
     </g>
    </g>
    <g id="ytick_3">
     <g id="line2d_9">
      <g>
       <use xlink:href="#mb4c51609fb" x="54" y="194.822651" style="stroke: #000000; stroke-width: 0.8"/>
      </g>
     </g>
     <g id="text_10">
      <!-- 0.2 -->
      <g transform="translate(31.096875 198.62187) scale(0.1 -0.1)">
       <use xlink:href="#DejaVuSans-30"/>
       <use xlink:href="#DejaVuSans-2e" x="63.623047"/>
       <use xlink:href="#DejaVuSans-32" x="95.410156"/>
      </g>
     </g>
    </g>
    <g id="ytick_4">
     <g id="line2d_10">
      <g>
       <use xlink:href="#mb4c51609fb" x="54" y="167.326743" style="stroke: #000000; stroke-width: 0.8"/>
      </g>
     </g>
     <g id="text_11">
      <!-- 0.3 -->
      <g transform="translate(31.096875 171.125962) scale(0.1 -0.1)">
       <defs>
        <path id="DejaVuSans-33" d="M 2597 2516 
Q 3050 2419 3304 2112 
Q 3559 1806 3559 1356 
Q 3559 666 3084 287 
Q 2609 -91 1734 -91 
Q 1441 -91 1130 -33 
Q 819 25 488 141 
L 488 750 
Q 750 597 1062 519 
Q 1375 441 1716 441 
Q 2309 441 2620 675 
Q 2931 909 2931 1356 
Q 2931 1769 2642 2001 
Q 2353 2234 1838 2234 
L 1294 2234 
L 1294 2753 
L 1863 2753 
Q 2328 2753 2575 2939 
Q 2822 3125 2822 3475 
Q 2822 3834 2567 4026 
Q 2313 4219 1838 4219 
Q 1578 4219 1281 4162 
Q 984 4106 628 3988 
L 628 4550 
Q 988 4650 1302 4700 
Q 1616 4750 1894 4750 
Q 2613 4750 3031 4423 
Q 3450 4097 3450 3541 
Q 3450 3153 3228 2886 
Q 3006 2619 2597 2516 
z
" transform="scale(0.015625)"/>
       </defs>
       <use xlink:href="#DejaVuSans-30"/>
       <use xlink:href="#DejaVuSans-2e" x="63.623047"/>
       <use xlink:href="#DejaVuSans-33" x="95.410156"/>
      </g>
     </g>
    </g>
    <g id="ytick_5">
     <g id="line2d_11">
      <g>
       <use xlink:href="#mb4c51609fb" x="54" y="139.830835" style="stroke: #000000; stroke-width: 0.8"/>
      </g>
     </g>
     <g id="text_12">
      <!-- 0.4 -->
      <g transform="translate(31.096875 143.630053) scale(0.1 -0.1)">
       <use xlink:href="#DejaVuSans-30"/>
       <use xlink:href="#DejaVuSans-2e" x="63.623047"/>
       <use xlink:href="#DejaVuSans-34" x="95.410156"/>
      </g>
     </g>
    </g>
    <g id="ytick_6">
     <g id="line2d_12">
      <g>
       <use xlink:href="#mb4c51609fb" x="54" y="112.334926" style="stroke: #000000; stroke-width: 0.8"/>
      </g>
     </g>
     <g id="text_13">
      <!-- 0.5 -->
      <g transform="translate(31.096875 116.134145) scale(0.1 -0.1)">
       <defs>
        <path id="DejaVuSans-35" d="M 691 4666 
L 3169 4666 
L 3169 4134 
L 1269 4134 
L 1269 2991 
Q 1406 3038 1543 3061 
Q 1681 3084 1819 3084 
Q 2600 3084 3056 2656 
Q 3513 2228 3513 1497 
Q 3513 744 3044 326 
Q 2575 -91 1722 -91 
Q 1428 -91 1123 -41 
Q 819 9 494 109 
L 494 744 
Q 775 591 1075 516 
Q 1375 441 1709 441 
Q 2250 441 2565 725 
Q 2881 1009 2881 1497 
Q 2881 1984 2565 2268 
Q 2250 2553 1709 2553 
Q 1456 2553 1204 2497 
Q 953 2441 691 2322 
L 691 4666 
z
" transform="scale(0.015625)"/>
       </defs>
       <use xlink:href="#DejaVuSans-30"/>
       <use xlink:href="#DejaVuSans-2e" x="63.623047"/>
       <use xlink:href="#DejaVuSans-35" x="95.410156"/>
      </g>
     </g>
    </g>
    <g id="ytick_7">
     <g id="line2d_13">
      <g>
       <use xlink:href="#mb4c51609fb" x="54" y="84.839018" style="stroke: #000000; stroke-width: 0.8"/>
      </g>
     </g>
     <g id="text_14">
      <!-- 0.6 -->
      <g transform="translate(31.096875 88.638237) scale(0.1 -0.1)">
       <use xlink:href="#DejaVuSans-30"/>
       <use xlink:href="#DejaVuSans-2e" x="63.623047"/>
       <use xlink:href="#DejaVuSans-36" x="95.410156"/>
      </g>
     </g>
    </g>
    <g id="ytick_8">
     <g id="line2d_14">
      <g>
       <use xlink:href="#mb4c51609fb" x="54" y="57.34311" style="stroke: #000000; stroke-width: 0.8"/>
      </g>
     </g>
     <g id="text_15">
      <!-- 0.7 -->
      <g transform="translate(31.096875 61.142328) scale(0.1 -0.1)">
       <defs>
        <path id="DejaVuSans-37" d="M 525 4666 
L 3525 4666 
L 3525 4397 
L 1831 0 
L 1172 0 
L 2766 4134 
L 525 4134 
L 525 4666 
z
" transform="scale(0.015625)"/>
       </defs>
       <use xlink:href="#DejaVuSans-30"/>
       <use xlink:href="#DejaVuSans-2e" x="63.623047"/>
       <use xlink:href="#DejaVuSans-37" x="95.410156"/>
      </g>
     </g>
    </g>
    <g id="text_16">
     <!-- Val Accuracy -->
     <g transform="translate(24.60125 183.72375) rotate(-90) scale(0.12 -0.12)">
      <defs>
       <path id="DejaVuSans-56" d="M 1831 0 
L 50 4666 
L 709 4666 
L 2188 738 
L 3669 4666 
L 4325 4666 
L 2547 0 
L 1831 0 
z
" transform="scale(0.015625)"/>
       <path id="DejaVuSans-61" d="M 2194 1759 
Q 1497 1759 1228 1600 
Q 959 1441 959 1056 
Q 959 750 1161 570 
Q 1363 391 1709 391 
Q 2188 391 2477 730 
Q 2766 1069 2766 1631 
L 2766 1759 
L 2194 1759 
z
M 3341 1997 
L 3341 0 
L 2766 0 
L 2766 531 
Q 2569 213 2275 61 
Q 1981 -91 1556 -91 
Q 1019 -91 701 211 
Q 384 513 384 1019 
Q 384 1609 779 1909 
Q 1175 2209 1959 2209 
L 2766 2209 
L 2766 2266 
Q 2766 2663 2505 2880 
Q 2244 3097 1772 3097 
Q 1472 3097 1187 3025 
Q 903 2953 641 2809 
L 641 3341 
Q 956 3463 1253 3523 
Q 1550 3584 1831 3584 
Q 2591 3584 2966 3190 
Q 3341 2797 3341 1997 
z
" transform="scale(0.015625)"/>
       <path id="DejaVuSans-6c" d="M 603 4863 
L 1178 4863 
L 1178 0 
L 603 0 
L 603 4863 
z
" transform="scale(0.015625)"/>
       <path id="DejaVuSans-20" transform="scale(0.015625)"/>
       <path id="DejaVuSans-41" d="M 2188 4044 
L 1331 1722 
L 3047 1722 
L 2188 4044 
z
M 1831 4666 
L 2547 4666 
L 4325 0 
L 3669 0 
L 3244 1197 
L 1141 1197 
L 716 0 
L 50 0 
L 1831 4666 
z
" transform="scale(0.015625)"/>
       <path id="DejaVuSans-75" d="M 544 1381 
L 544 3500 
L 1119 3500 
L 1119 1403 
Q 1119 906 1312 657 
Q 1506 409 1894 409 
Q 2359 409 2629 706 
Q 2900 1003 2900 1516 
L 2900 3500 
L 3475 3500 
L 3475 0 
L 2900 0 
L 2900 538 
Q 2691 219 2414 64 
Q 2138 -91 1772 -91 
Q 1169 -91 856 284 
Q 544 659 544 1381 
z
M 1991 3584 
L 1991 3584 
z
" transform="scale(0.015625)"/>
       <path id="DejaVuSans-72" d="M 2631 2963 
Q 2534 3019 2420 3045 
Q 2306 3072 2169 3072 
Q 1681 3072 1420 2755 
Q 1159 2438 1159 1844 
L 1159 0 
L 581 0 
L 581 3500 
L 1159 3500 
L 1159 2956 
Q 1341 3275 1631 3429 
Q 1922 3584 2338 3584 
Q 2397 3584 2469 3576 
Q 2541 3569 2628 3553 
L 2631 2963 
z
" transform="scale(0.015625)"/>
       <path id="DejaVuSans-79" d="M 2059 -325 
Q 1816 -950 1584 -1140 
Q 1353 -1331 966 -1331 
L 506 -1331 
L 506 -850 
L 844 -850 
Q 1081 -850 1212 -737 
Q 1344 -625 1503 -206 
L 1606 56 
L 191 3500 
L 800 3500 
L 1894 763 
L 2988 3500 
L 3597 3500 
L 2059 -325 
z
" transform="scale(0.015625)"/>
      </defs>
      <use xlink:href="#DejaVuSans-56"/>
      <use xlink:href="#DejaVuSans-61" x="60.658203"/>
      <use xlink:href="#DejaVuSans-6c" x="121.9375"/>
      <use xlink:href="#DejaVuSans-20" x="149.720703"/>
      <use xlink:href="#DejaVuSans-41" x="181.507812"/>
      <use xlink:href="#DejaVuSans-63" x="248.166016"/>
      <use xlink:href="#DejaVuSans-63" x="303.146484"/>
      <use xlink:href="#DejaVuSans-75" x="358.126953"/>
      <use xlink:href="#DejaVuSans-72" x="421.505859"/>
      <use xlink:href="#DejaVuSans-61" x="462.619141"/>
      <use xlink:href="#DejaVuSans-63" x="523.898438"/>
      <use xlink:href="#DejaVuSans-79" x="578.878906"/>
     </g>
    </g>
   </g>
   <g id="line2d_15">
    <path d="M 69.218182 246.24 
L 72.292562 229.000065 
L 75.366942 218.55162 
L 78.441322 213.10743 
L 81.515702 209.807921 
L 84.590083 204.198756 
L 87.664463 197.709722 
L 90.738843 194.355221 
L 93.813223 187.096301 
L 96.887603 184.649165 
L 99.961983 179.50743 
L 103.036364 177.307758 
L 106.110744 175.163077 
L 109.185124 172.248511 
L 112.259504 168.426579 
L 115.333884 164.137218 
L 118.408264 164.384681 
L 121.482645 163.807267 
L 124.557025 161.552602 
L 127.631405 155.970933 
L 130.705785 158.940491 
L 133.780165 154.431162 
L 136.854545 154.018723 
L 139.928926 149.53689 
L 143.003306 148.217087 
L 146.077686 145.467496 
L 149.152066 143.405303 
L 152.226446 144.97257 
L 155.300826 141.755548 
L 158.375207 141.068151 
L 161.449587 137.163732 
L 164.523967 135.843928 
L 167.598347 132.379444 
L 170.672727 133.644255 
L 173.747107 132.434435 
L 176.821488 127.512668 
L 179.895868 126.852766 
L 182.970248 126.110376 
L 186.044628 124.515614 
L 189.119008 125.340491 
L 192.193388 122.370933 
L 195.267769 120.91365 
L 198.342149 122.810867 
L 201.416529 119.868805 
L 204.490909 119.09892 
L 207.565289 119.181408 
L 210.639669 116.569296 
L 213.71405 115.661931 
L 216.78843 116.266841 
L 219.86281 115.221997 
L 222.93719 115.634435 
L 226.01157 111.070115 
L 229.08595 113.022324 
L 232.160331 110.272733 
L 235.234711 112.334926 
L 238.309091 111.152602 
L 241.383471 107.358167 
L 244.457851 107.440655 
L 247.532231 107.275679 
L 250.606612 106.973224 
L 253.680992 105.900884 
L 256.755372 106.918232 
L 259.829752 104.71856 
L 262.904132 105.460949 
L 265.978512 104.333617 
L 269.052893 103.288773 
L 272.127273 103.013813 
L 275.201653 103.178789 
L 278.276033 102.491391 
L 281.350413 101.721506 
L 284.424793 100.649165 
L 287.499174 101.006612 
L 290.573554 99.87928 
L 293.647934 100.071751 
L 296.722314 100.154239 
L 299.796694 98.202029 
L 302.871074 98.586972 
L 305.945455 97.074697 
L 309.019835 97.487136 
L 312.094215 97.019705 
L 315.168595 96.24982 
L 318.242975 96.937218 
L 321.317355 97.102193 
L 324.391736 96.579771 
L 327.466116 96.909722 
L 330.540496 96.304812 
L 333.614876 96.71725 
L 336.689256 96.167332 
L 339.763636 96.194828 
L 342.838017 96.634763 
L 345.912397 95.864877 
L 348.986777 96.11234 
L 352.061157 96.139836 
L 355.135537 96.634763 
L 358.209917 96.167332 
L 361.284298 95.204975 
L 364.358678 95.04 
L 367.433058 95.149984 
L 370.507438 95.78239 
L 373.581818 95.534926 
" clip-path="url(#pb536055a72)" style="fill: none; stroke: #1f77b4; stroke-width: 2; stroke-linecap: square"/>
   </g>
   <g id="line2d_16">
    <path d="M 69.218182 242.335581 
L 72.292562 219.568969 
L 75.366942 208.213159 
L 78.441322 197.682226 
L 81.515702 188.306121 
L 84.590083 180.029853 
L 87.664463 168.041637 
L 90.738843 161.800065 
L 93.813223 156.93329 
L 96.887603 149.564386 
L 99.961983 147.199738 
L 103.036364 139.088445 
L 106.110744 140.078298 
L 109.185124 135.046547 
L 112.259504 131.307103 
L 115.333884 124.653093 
L 118.408264 123.883208 
L 121.482645 130.894664 
L 124.557025 124.763077 
L 127.631405 119.291391 
L 130.705785 114.974534 
L 133.780165 123.250802 
L 136.854545 120.803666 
L 139.928926 115.909394 
L 143.003306 115.93689 
L 146.077686 113.1873 
L 149.152066 122.425925 
L 152.226446 112.499902 
L 155.300826 105.350966 
L 158.375207 113.407267 
L 161.449587 109.282881 
L 164.523967 105.460949 
L 167.598347 107.330671 
L 170.672727 114.12216 
L 173.747107 106.478298 
L 176.821488 96.194828 
L 179.895868 101.913977 
L 182.970248 99.851784 
L 186.044628 95.974861 
L 189.119008 97.707103 
L 192.193388 96.964714 
L 195.267769 94.545074 
L 198.342149 93.472733 
L 201.416529 94.517578 
L 204.490909 91.603011 
L 207.565289 90.558167 
L 210.639669 93.417741 
L 213.71405 91.465532 
L 216.78843 86.598756 
L 219.86281 87.148674 
L 222.93719 92.097938 
L 226.01157 81.86946 
L 229.08595 85.471424 
L 232.160331 82.116923 
L 235.234711 82.749329 
L 238.309091 81.567005 
L 241.383471 84.041637 
L 244.457851 81.429525 
L 247.532231 76.480262 
L 250.606612 81.374534 
L 253.680992 79.614795 
L 256.755372 74.912995 
L 259.829752 77.442619 
L 262.904132 72.905794 
L 265.978512 71.393519 
L 269.052893 71.613486 
L 272.127273 72.603339 
L 275.201653 67.929034 
L 278.276033 64.849493 
L 281.350413 65.866841 
L 284.424793 68.231489 
L 287.499174 68.09401 
L 290.573554 65.811849 
L 293.647934 62.732308 
L 296.722314 61.30252 
L 299.796694 60.532635 
L 302.871074 61.082553 
L 305.945455 58.222979 
L 309.019835 58.855385 
L 312.094215 58.360458 
L 315.168595 58.250475 
L 318.242975 55.885827 
L 321.317355 55.473388 
L 324.391736 53.878625 
L 327.466116 54.593519 
L 330.540496 54.566023 
L 333.614876 52.806285 
L 336.689256 50.964059 
L 339.763636 51.458985 
L 342.838017 52.201375 
L 345.912397 49.589264 
L 348.986777 48.956858 
L 352.061157 47.169624 
L 355.135537 48.241964 
L 358.209917 46.757185 
L 361.284298 46.482226 
L 364.358678 47.307103 
L 367.433058 46.784681 
L 370.507438 46.207267 
L 373.581818 46.152275 
" clip-path="url(#pb536055a72)" style="fill: none; stroke: #ff7f0e; stroke-width: 2; stroke-linecap: square"/>
   </g>
   <g id="line2d_17">
    <path d="M 69.218182 246.24 
L 72.292562 229.44 
L 75.366942 217.891718 
L 78.441322 212.282553 
L 81.515702 209.917905 
L 84.590083 199.93689 
L 87.664463 195.317578 
L 90.738843 192.458003 
L 93.813223 186.546383 
L 96.887603 182.476989 
L 99.961983 178.517578 
L 103.036364 174.420687 
L 106.110744 170.323797 
L 109.185124 171.121178 
L 112.259504 166.254403 
L 115.333884 161.717578 
L 118.408264 160.397774 
L 121.482645 158.060622 
L 124.557025 157.070769 
L 127.631405 152.368969 
L 130.705785 150.444255 
L 133.780165 150.1418 
L 136.854545 148.382062 
L 139.928926 144.120196 
L 143.003306 143.735254 
L 146.077686 139.803339 
L 149.152066 138.071097 
L 152.226446 135.816432 
L 155.300826 133.864223 
L 158.375207 133.286809 
L 161.449587 132.049493 
L 164.523967 128.282553 
L 167.598347 127.375188 
L 170.672727 127.457676 
L 173.747107 124.268151 
L 176.821488 122.12347 
L 179.895868 123.168314 
L 182.970248 119.923797 
L 186.044628 118.851457 
L 189.119008 117.806612 
L 192.193388 114.617087 
L 195.267769 113.682226 
L 198.342149 114.672079 
L 201.416529 112.197447 
L 204.490909 114.039673 
L 207.565289 113.819705 
L 210.639669 110.16275 
L 213.71405 108.128052 
L 216.78843 110.4927 
L 219.86281 108.732962 
L 222.93719 109.887791 
L 226.01157 104.58108 
L 229.08595 104.361113 
L 232.160331 104.856039 
L 235.234711 104.388609 
L 238.309091 102.326416 
L 241.383471 100.731653 
L 244.457851 100.181735 
L 247.532231 100.979116 
L 250.606612 100.979116 
L 253.680992 98.284517 
L 256.755372 99.851784 
L 259.829752 96.992209 
L 262.904132 97.954566 
L 265.978512 96.744746 
L 269.052893 96.992209 
L 272.127273 94.29761 
L 275.201653 94.985008 
L 278.276033 94.655057 
L 281.350413 94.737545 
L 284.424793 95.397447 
L 287.499174 94.682553 
L 290.573554 94.875025 
L 293.647934 92.207921 
L 296.722314 93.36275 
L 299.796694 91.54802 
L 302.871074 93.720196 
L 305.945455 92.262913 
L 309.019835 91.658003 
L 312.094215 92.647856 
L 315.168595 91.658003 
L 318.242975 90.585663 
L 321.317355 91.300556 
L 324.391736 90.750638 
L 327.466116 91.053093 
L 330.540496 90.915614 
L 333.614876 91.053093 
L 336.689256 90.585663 
L 339.763636 90.365696 
L 342.838017 90.558167 
L 345.912397 89.238363 
L 348.986777 89.678298 
L 352.061157 89.705794 
L 355.135537 90.008249 
L 358.209917 89.320851 
L 361.284298 89.155876 
L 364.358678 89.375843 
L 367.433058 89.788282 
L 370.507438 89.898265 
L 373.581818 89.540818 
" clip-path="url(#pb536055a72)" style="fill: none; stroke-dasharray: 7.4,3.2; stroke-dashoffset: 0; stroke: #2ca02c; stroke-width: 2"/>
   </g>
   <g id="line2d_18">
    <path d="M 69.218182 242.225597 
L 72.292562 220.833781 
L 75.366942 207.223306 
L 78.441322 190.588282 
L 81.515702 190.698265 
L 84.590083 182.257021 
L 87.664463 161.360131 
L 90.738843 155.421015 
L 93.813223 151.791555 
L 96.887603 146.539836 
L 99.961983 141.783044 
L 103.036364 134.991555 
L 106.110744 132.489427 
L 109.185124 128.694992 
L 112.259504 128.062586 
L 115.333884 121.491064 
L 118.408264 122.480917 
L 121.482645 128.997447 
L 124.557025 121.161113 
L 127.631405 118.439018 
L 130.705785 112.939836 
L 133.780165 123.085827 
L 136.854545 126.247856 
L 139.928926 116.486809 
L 143.003306 116.376825 
L 146.077686 110.575188 
L 149.152066 118.35653 
L 152.226446 109.777807 
L 155.300826 104.333617 
L 158.375207 112.114959 
L 161.449587 105.18599 
L 164.523967 103.811195 
L 167.598347 104.883535 
L 170.672727 105.763404 
L 173.747107 101.886481 
L 176.821488 93.610213 
L 179.895868 100.731653 
L 182.970248 97.597119 
L 186.044628 93.96766 
L 189.119008 92.950311 
L 192.193388 94.710049 
L 195.267769 93.472733 
L 198.342149 88.550966 
L 201.416529 96.304812 
L 204.490909 94.655057 
L 207.565289 87.753584 
L 210.639669 94.682553 
L 213.71405 84.316596 
L 216.78843 90.613159 
L 219.86281 85.938854 
L 222.93719 90.035745 
L 226.01157 83.68419 
L 229.08595 82.969296 
L 232.160331 82.584354 
L 235.234711 78.734926 
L 238.309091 77.607594 
L 241.383471 84.866514 
L 244.457851 79.5873 
L 247.532231 79.147365 
L 250.606612 77.855057 
L 253.680992 77.03018 
L 256.755372 76.865205 
L 259.829752 70.678625 
L 262.904132 73.098265 
L 265.978512 69.193846 
L 269.052893 71.72347 
L 272.127273 71.036072 
L 275.201653 67.901538 
L 278.276033 68.423961 
L 281.350413 65.481899 
L 284.424793 70.541146 
L 287.499174 66.609231 
L 290.573554 63.914632 
L 293.647934 62.704812 
L 296.722314 61.357512 
L 299.796694 61.055057 
L 302.871074 57.728052 
L 305.945455 59.432799 
L 309.019835 56.463241 
L 312.094215 56.463241 
L 315.168595 55.060949 
L 318.242975 54.291064 
L 321.317355 53.026252 
L 324.391736 53.411195 
L 327.466116 53.053748 
L 330.540496 50.441637 
L 333.614876 51.843928 
L 336.689256 48.984354 
L 339.763636 48.626907 
L 342.838017 50.221669 
L 345.912397 47.252111 
L 348.986777 47.829525 
L 352.061157 46.262259 
L 355.135537 46.399738 
L 358.209917 44.914959 
L 361.284298 45.684845 
L 364.358678 46.152275 
L 367.433058 44.804975 
L 370.507438 44.64 
L 373.581818 45.052439 
" clip-path="url(#pb536055a72)" style="fill: none; stroke-dasharray: 7.4,3.2; stroke-dashoffset: 0; stroke: #d62728; stroke-width: 2"/>
   </g>
   <g id="patch_3">
    <path d="M 54 256.32 
L 54 34.56 
" style="fill: none; stroke: #000000; stroke-width: 0.8; stroke-linejoin: miter; stroke-linecap: square"/>
   </g>
   <g id="patch_4">
    <path d="M 388.8 256.32 
L 388.8 34.56 
" style="fill: none; stroke: #000000; stroke-width: 0.8; stroke-linejoin: miter; stroke-linecap: square"/>
   </g>
   <g id="patch_5">
    <path d="M 54 256.32 
L 388.8 256.32 
" style="fill: none; stroke: #000000; stroke-width: 0.8; stroke-linejoin: miter; stroke-linecap: square"/>
   </g>
   <g id="patch_6">
    <path d="M 54 34.56 
L 388.8 34.56 
" style="fill: none; stroke: #000000; stroke-width: 0.8; stroke-linejoin: miter; stroke-linecap: square"/>
   </g>
   <g id="legend_1">
    <g id="line2d_19">
     <path d="M 278.114219 191.844531 
L 286.364219 191.844531 
L 294.614219 191.844531 
" style="fill: none; stroke: #1f77b4; stroke-width: 2; stroke-linecap: square"/>
    </g>
    <g id="text_17">
     <!-- ViT -->
     <g transform="translate(303.414219 195.694531) scale(0.11 -0.11)">
      <defs>
       <path id="DejaVuSans-69" d="M 603 3500 
L 1178 3500 
L 1178 0 
L 603 0 
L 603 3500 
z
M 603 4863 
L 1178 4863 
L 1178 4134 
L 603 4134 
L 603 4863 
z
" transform="scale(0.015625)"/>
       <path id="DejaVuSans-54" d="M -19 4666 
L 3928 4666 
L 3928 4134 
L 2272 4134 
L 2272 0 
L 1638 0 
L 1638 4134 
L -19 4134 
L -19 4666 
z
" transform="scale(0.015625)"/>
      </defs>
      <use xlink:href="#DejaVuSans-56"/>
      <use xlink:href="#DejaVuSans-69" x="66.158203"/>
      <use xlink:href="#DejaVuSans-54" x="93.941406"/>
     </g>
    </g>
    <g id="line2d_20">
     <path d="M 278.114219 207.990469 
L 286.364219 207.990469 
L 294.614219 207.990469 
" style="fill: none; stroke: #ff7f0e; stroke-width: 2; stroke-linecap: square"/>
    </g>
    <g id="text_18">
     <!-- ResNet -->
     <g transform="translate(303.414219 211.840469) scale(0.11 -0.11)">
      <defs>
       <path id="DejaVuSans-52" d="M 2841 2188 
Q 3044 2119 3236 1894 
Q 3428 1669 3622 1275 
L 4263 0 
L 3584 0 
L 2988 1197 
Q 2756 1666 2539 1819 
Q 2322 1972 1947 1972 
L 1259 1972 
L 1259 0 
L 628 0 
L 628 4666 
L 2053 4666 
Q 2853 4666 3247 4331 
Q 3641 3997 3641 3322 
Q 3641 2881 3436 2590 
Q 3231 2300 2841 2188 
z
M 1259 4147 
L 1259 2491 
L 2053 2491 
Q 2509 2491 2742 2702 
Q 2975 2913 2975 3322 
Q 2975 3731 2742 3939 
Q 2509 4147 2053 4147 
L 1259 4147 
z
" transform="scale(0.015625)"/>
       <path id="DejaVuSans-65" d="M 3597 1894 
L 3597 1613 
L 953 1613 
Q 991 1019 1311 708 
Q 1631 397 2203 397 
Q 2534 397 2845 478 
Q 3156 559 3463 722 
L 3463 178 
Q 3153 47 2828 -22 
Q 2503 -91 2169 -91 
Q 1331 -91 842 396 
Q 353 884 353 1716 
Q 353 2575 817 3079 
Q 1281 3584 2069 3584 
Q 2775 3584 3186 3129 
Q 3597 2675 3597 1894 
z
M 3022 2063 
Q 3016 2534 2758 2815 
Q 2500 3097 2075 3097 
Q 1594 3097 1305 2825 
Q 1016 2553 972 2059 
L 3022 2063 
z
" transform="scale(0.015625)"/>
       <path id="DejaVuSans-73" d="M 2834 3397 
L 2834 2853 
Q 2591 2978 2328 3040 
Q 2066 3103 1784 3103 
Q 1356 3103 1142 2972 
Q 928 2841 928 2578 
Q 928 2378 1081 2264 
Q 1234 2150 1697 2047 
L 1894 2003 
Q 2506 1872 2764 1633 
Q 3022 1394 3022 966 
Q 3022 478 2636 193 
Q 2250 -91 1575 -91 
Q 1294 -91 989 -36 
Q 684 19 347 128 
L 347 722 
Q 666 556 975 473 
Q 1284 391 1588 391 
Q 1994 391 2212 530 
Q 2431 669 2431 922 
Q 2431 1156 2273 1281 
Q 2116 1406 1581 1522 
L 1381 1569 
Q 847 1681 609 1914 
Q 372 2147 372 2553 
Q 372 3047 722 3315 
Q 1072 3584 1716 3584 
Q 2034 3584 2315 3537 
Q 2597 3491 2834 3397 
z
" transform="scale(0.015625)"/>
       <path id="DejaVuSans-4e" d="M 628 4666 
L 1478 4666 
L 3547 763 
L 3547 4666 
L 4159 4666 
L 4159 0 
L 3309 0 
L 1241 3903 
L 1241 0 
L 628 0 
L 628 4666 
z
" transform="scale(0.015625)"/>
       <path id="DejaVuSans-74" d="M 1172 4494 
L 1172 3500 
L 2356 3500 
L 2356 3053 
L 1172 3053 
L 1172 1153 
Q 1172 725 1289 603 
Q 1406 481 1766 481 
L 2356 481 
L 2356 0 
L 1766 0 
Q 1100 0 847 248 
Q 594 497 594 1153 
L 594 3053 
L 172 3053 
L 172 3500 
L 594 3500 
L 594 4494 
L 1172 4494 
z
" transform="scale(0.015625)"/>
      </defs>
      <use xlink:href="#DejaVuSans-52"/>
      <use xlink:href="#DejaVuSans-65" x="64.982422"/>
      <use xlink:href="#DejaVuSans-73" x="126.505859"/>
      <use xlink:href="#DejaVuSans-4e" x="178.605469"/>
      <use xlink:href="#DejaVuSans-65" x="253.410156"/>
      <use xlink:href="#DejaVuSans-74" x="314.933594"/>
     </g>
    </g>
    <g id="line2d_21">
     <path d="M 278.114219 224.136406 
L 286.364219 224.136406 
L 294.614219 224.136406 
" style="fill: none; stroke-dasharray: 7.4,3.2; stroke-dashoffset: 0; stroke: #2ca02c; stroke-width: 2"/>
    </g>
    <g id="text_19">
     <!-- ViT+TrAct -->
     <g transform="translate(303.414219 227.986406) scale(0.11 -0.11)">
      <defs>
       <path id="DejaVuSans-2b" d="M 2944 4013 
L 2944 2272 
L 4684 2272 
L 4684 1741 
L 2944 1741 
L 2944 0 
L 2419 0 
L 2419 1741 
L 678 1741 
L 678 2272 
L 2419 2272 
L 2419 4013 
L 2944 4013 
z
" transform="scale(0.015625)"/>
      </defs>
      <use xlink:href="#DejaVuSans-56"/>
      <use xlink:href="#DejaVuSans-69" x="66.158203"/>
      <use xlink:href="#DejaVuSans-54" x="93.941406"/>
      <use xlink:href="#DejaVuSans-2b" x="155.025391"/>
      <use xlink:href="#DejaVuSans-54" x="238.814453"/>
      <use xlink:href="#DejaVuSans-72" x="285.148438"/>
      <use xlink:href="#DejaVuSans-41" x="326.261719"/>
      <use xlink:href="#DejaVuSans-63" x="392.919922"/>
      <use xlink:href="#DejaVuSans-74" x="447.900391"/>
     </g>
    </g>
    <g id="line2d_22">
     <path d="M 278.114219 240.282344 
L 286.364219 240.282344 
L 294.614219 240.282344 
" style="fill: none; stroke-dasharray: 7.4,3.2; stroke-dashoffset: 0; stroke: #d62728; stroke-width: 2"/>
    </g>
    <g id="text_20">
     <!-- ResNet+TrAct -->
     <g transform="translate(303.414219 244.132344) scale(0.11 -0.11)">
      <use xlink:href="#DejaVuSans-52"/>
      <use xlink:href="#DejaVuSans-65" x="64.982422"/>
      <use xlink:href="#DejaVuSans-73" x="126.505859"/>
      <use xlink:href="#DejaVuSans-4e" x="178.605469"/>
      <use xlink:href="#DejaVuSans-65" x="253.410156"/>
      <use xlink:href="#DejaVuSans-74" x="314.933594"/>
      <use xlink:href="#DejaVuSans-2b" x="354.142578"/>
      <use xlink:href="#DejaVuSans-54" x="437.931641"/>
      <use xlink:href="#DejaVuSans-72" x="484.265625"/>
      <use xlink:href="#DejaVuSans-41" x="525.378906"/>
      <use xlink:href="#DejaVuSans-63" x="592.037109"/>
      <use xlink:href="#DejaVuSans-74" x="647.017578"/>
     </g>
    </g>
   </g>
  </g>
 </g>
 <defs>
  <clipPath id="pb536055a72">
   <rect x="54" y="34.56" width="334.8" height="221.76"/>
  </clipPath>
 </defs>
</svg>
